<svg xmlns="http://www.w3.org/2000/svg" width="181" height="22" viewBox="0 0 181 22">
  <g id="Vector_Smart_Object" data-name="Vector Smart Object" transform="translate(-5.843 -6.202)">
    <path id="Path_9" data-name="Path 9" d="M148.37,16.29,139.18,28.2h-8.172l16.948-22h8.172l.89,22h-8.172Z" fill="#fff"/>
    <path id="Path_10" data-name="Path 10" d="M134.624,12.236H119.33l-.637,1.917h11.225l-1.971,6.034H116.722l-.668,1.979h15.295L129.378,28.2h-23.53l7.186-22h23.595Z" fill="#fff"/>
    <path id="Path_11" data-name="Path 11" d="M43.912,28.2H35.74l7.186-22H51.1Z" fill="#fff"/>
    <path id="Path_12" data-name="Path 12" d="M158.133,28.2l7.217-22h11.638a12.34,12.34,0,0,1,5.342,1.022,8.221,8.221,0,0,1,3.26,2.624,6.685,6.685,0,0,1,1.239,3.52,7.754,7.754,0,0,1-.715,3.724,8.87,8.87,0,0,1-2.624,3.237,11.159,11.159,0,0,1-4.467,2.058l3.5,5.815H174.35l-3.275-5.437h-2.989l-1.78,5.437ZM170.12,16.636h5.311a3.668,3.668,0,0,0,2.432-.691,2.283,2.283,0,0,0,.89-1.508,1.9,1.9,0,0,0-.556-1.509,2.47,2.47,0,0,0-1.908-.691h-4.738Z" fill="#fff"/>
    <path id="Path_13" data-name="Path 13" d="M73.653,12.236H66.181L60.967,28.2H52.731l5.215-15.966h-6.9L53.017,6.2h22.64Z" fill="#fff"/>
    <path id="Path_14" data-name="Path 14" d="M84.883,18.144,90.479,6.2h7.535l.51,11.942,5.6-11.942H110.7l-10.334,22H91.4l-.381-9.146L86.727,28.2H77.759l-.921-22h7.536Z" fill="#fff"/>
    <path id="Path_15" data-name="Path 15" d="M38.722,12.235H5.843L7.815,6.2H40.725Z" fill="#ff000a"/>
    <path id="Path_16" data-name="Path 16" d="M32.044,20.187H20.788L18.181,28.2H9.945l2.234-6.853a10.488,10.488,0,0,1,9.994-7.2H34.016Z" fill="#fff"/>
  </g>
</svg>
